<?xml version="1.0" encoding="UTF-8"?>
<!DOCTYPE svg PUBLIC "-//W3C//DTD SVG 1.1//EN" "http://www.w3.org/Graphics/SVG/1.1/DTD/svg11.dtd">
<svg xmlns="http://www.w3.org/2000/svg" version="1.1" width="125px" height="40px" style="shape-rendering:geometricPrecision; text-rendering:geometricPrecision; image-rendering:optimizeQuality; fill-rule:evenodd; clip-rule:evenodd" xmlns:xlink="http://www.w3.org/1999/xlink">
<g><path style="opacity:1" fill="#437391" d="M -0.5,-0.5 C 8.83333,-0.5 18.1667,-0.5 27.5,-0.5C 27.6602,1.19919 27.4935,2.86586 27,4.5C 19.9649,11.7026 12.7982,18.7026 5.5,25.5C 5.16667,25.5 4.83333,25.5 4.5,25.5C 4.35055,24.448 4.51722,23.448 5,22.5C 11.5,16 18,9.5 24.5,3C 17.1742,2.50034 9.8409,2.33368 2.5,2.5C 2.5,3.83333 2.5,5.16667 2.5,6.5C 5.24688,6.18665 7.91355,6.51998 10.5,7.5C 10.3333,7.83333 10.1667,8.16667 10,8.5C 6.60636,9.45584 3.10636,9.78917 -0.5,9.5C -0.5,6.16667 -0.5,2.83333 -0.5,-0.5 Z"/></g>
<g><path style="opacity:1" fill="#fbfcfc" d="M 27.5,-0.5 C 59.8333,-0.5 92.1667,-0.5 124.5,-0.5C 124.5,12.8333 124.5,26.1667 124.5,39.5C 82.8333,39.5 41.1667,39.5 -0.5,39.5C -0.5,36.5 -0.5,33.5 -0.5,30.5C 8.83333,30.5 18.1667,30.5 27.5,30.5C 27.5,26.8333 27.5,23.1667 27.5,19.5C 22.9677,19.1818 18.6344,19.5151 14.5,20.5C 13.7109,20.7828 13.0442,21.2828 12.5,22C 16.4862,22.4988 20.4862,22.6655 24.5,22.5C 24.5,23.8333 24.5,25.1667 24.5,26.5C 17.9779,26.8235 11.6446,26.4902 5.5,25.5C 12.7982,18.7026 19.9649,11.7026 27,4.5C 27.4935,2.86586 27.6602,1.19919 27.5,-0.5 Z"/></g>
<g><path style="opacity:1" fill="#f6f8fa" d="M 4.5,25.5 C 4.44001,26.0431 4.10667,26.3764 3.5,26.5C 2.57131,25.3112 2.23798,23.9778 2.5,22.5C 7.63034,16.8686 12.9637,11.3686 18.5,6C 17.7248,4.77049 16.7248,4.43716 15.5,5C 10.298,10.3697 4.96467,15.5364 -0.5,20.5C -0.5,19.5 -0.5,18.5 -0.5,17.5C 1.29585,16.2073 2.96252,14.7073 4.5,13C 2.86586,12.5065 1.19919,12.3398 -0.5,12.5C -0.5,11.5 -0.5,10.5 -0.5,9.5C 3.10636,9.78917 6.60636,9.45584 10,8.5C 10.1667,8.16667 10.3333,7.83333 10.5,7.5C 7.91355,6.51998 5.24688,6.18665 2.5,6.5C 2.5,5.16667 2.5,3.83333 2.5,2.5C 9.8409,2.33368 17.1742,2.50034 24.5,3C 18,9.5 11.5,16 5,22.5C 4.51722,23.448 4.35055,24.448 4.5,25.5 Z"/></g>
<g><path style="opacity:1" fill="#9ea9b5" d="M 32.5,13.5 C 35.6248,12.5206 38.9581,12.1872 42.5,12.5C 42.7373,13.791 42.404,14.791 41.5,15.5C 39.0122,13.6122 36.0122,12.9455 32.5,13.5 Z"/></g>
<g><path style="opacity:1" fill="#263653" d="M 92.5,11.5 C 93.9953,11.4148 94.9953,12.0815 95.5,13.5C 94.1667,14.8333 92.8333,14.8333 91.5,13.5C 91.8627,12.8165 92.1961,12.1499 92.5,11.5 Z"/></g>
<g><path style="opacity:1" fill="#3f708f" d="M -0.5,12.5 C 1.19919,12.3398 2.86586,12.5065 4.5,13C 2.96252,14.7073 1.29585,16.2073 -0.5,17.5C -0.5,15.8333 -0.5,14.1667 -0.5,12.5 Z"/></g>
<g><path style="opacity:1" fill="#5a829d" d="M 25.5,7.5 C 27.4023,10.3373 28.069,13.6707 27.5,17.5C 24.1501,17.665 20.8168,17.4983 17.5,17C 19.3211,14.8634 21.6544,14.0301 24.5,14.5C 24.448,12.0971 24.7814,9.76375 25.5,7.5 Z"/></g>
<g><path style="opacity:1" fill="#112646" d="M 32.5,13.5 C 36.0122,12.9455 39.0122,13.6122 41.5,15.5C 39.86,18.1492 38.1933,20.8159 36.5,23.5C 38.396,24.4656 40.396,24.7989 42.5,24.5C 42.5,25.5 42.5,26.5 42.5,27.5C 38.8333,27.5 35.1667,27.5 31.5,27.5C 33.2016,23.7704 35.2016,20.1037 37.5,16.5C 35.3449,15.9986 33.6782,14.9986 32.5,13.5 Z"/></g>
<g><path style="opacity:1" fill="#0f2544" d="M 55.5,12.5 C 56.5,12.5 57.5,12.5 58.5,12.5C 58.2148,14.288 58.5481,15.9547 59.5,17.5C 61.6439,16.0465 63.4773,16.3799 65,18.5C 65.6667,20.8333 65.6667,23.1667 65,25.5C 64.196,26.8045 63.0293,27.4712 61.5,27.5C 59.5971,26.6469 57.5971,26.6469 55.5,27.5C 55.5,22.5 55.5,17.5 55.5,12.5 Z"/></g>
<g><path style="opacity:1" fill="#d0d6dc" d="M 59.5,18.5 C 61.7224,18.5587 62.7224,19.7253 62.5,22C 61.1667,26.6667 59.8333,26.6667 58.5,22C 58.6483,20.7441 58.9816,19.5774 59.5,18.5 Z"/></g>
<g><path style="opacity:1" fill="#2b3a57" d="M 91.5,16.5 C 92.8333,16.5 94.1667,16.5 95.5,16.5C 95.5,20.1667 95.5,23.8333 95.5,27.5C 94.1667,27.5 92.8333,27.5 91.5,27.5C 91.5,23.8333 91.5,20.1667 91.5,16.5 Z"/></g>
<g><path style="opacity:1" fill="#112746" d="M 79.5,12.5 C 80.5,12.5 81.5,12.5 82.5,12.5C 82.3359,15.1873 82.5026,17.854 83,20.5C 88.452,14.9763 89.6187,15.1429 86.5,21C 87.1117,23.0577 88.1117,24.891 89.5,26.5C 88.635,27.5827 87.635,27.7494 86.5,27C 84.4477,22.23 83.1143,22.3967 82.5,27.5C 81.5,27.5 80.5,27.5 79.5,27.5C 79.5,22.5 79.5,17.5 79.5,12.5 Z"/></g>
<g><path style="opacity:1" fill="#7d8c9d" d="M 53.5,22.5 C 51.5,23.1667 49.5,23.8333 47.5,24.5C 46.9569,24.44 46.6236,24.1067 46.5,23.5C 48.7427,22.5258 51.076,22.1924 53.5,22.5 Z"/></g>
<g><path style="opacity:1" fill="#7d8c9d" d="M 77.5,22.5 C 75.5,23.1667 73.5,23.8333 71.5,24.5C 70.9569,24.44 70.6236,24.1067 70.5,23.5C 72.7427,22.5258 75.076,22.1924 77.5,22.5 Z"/></g>
<g><path style="opacity:1" fill="#0e2241" d="M 53.5,22.5 C 51.076,22.1924 48.7427,22.5258 46.5,23.5C 46.6236,24.1067 46.9569,24.44 47.5,24.5C 48.9516,25.3019 50.6183,25.8019 52.5,26C 46.288,28.4658 43.4547,26.2991 44,19.5C 45.8637,16.7928 48.3637,15.9595 51.5,17C 53.1554,18.4443 53.822,20.2776 53.5,22.5 Z"/></g>
<g><path style="opacity:1" fill="#8795a4" d="M 47.5,18.5 C 48.5,18.5 49.5,18.5 50.5,18.5C 50.5,19.5 50.5,20.5 50.5,21.5C 47.4331,21.8795 46.4331,20.8795 47.5,18.5 Z"/></g>
<g><path style="opacity:1" fill="#0d2241" d="M 77.5,22.5 C 75.076,22.1924 72.7427,22.5258 70.5,23.5C 70.6236,24.1067 70.9569,24.44 71.5,24.5C 72.9516,25.3019 74.6183,25.8019 76.5,26C 70.288,28.4658 67.4547,26.2991 68,19.5C 69.8637,16.7928 72.3637,15.9595 75.5,17C 77.1554,18.4443 77.822,20.2776 77.5,22.5 Z"/></g>
<g><path style="opacity:1" fill="#8795a4" d="M 71.5,18.5 C 72.5,18.5 73.5,18.5 74.5,18.5C 74.5,19.5 74.5,20.5 74.5,21.5C 71.4331,21.8795 70.4331,20.8795 71.5,18.5 Z"/></g>
<g><path style="opacity:1" fill="#3b6d8c" d="M 2.5,22.5 C 1.54885,23.9187 1.21552,25.5853 1.5,27.5C 9.35156,27.8254 17.0182,27.492 24.5,26.5C 24.5,25.1667 24.5,23.8333 24.5,22.5C 20.4862,22.6655 16.4862,22.4988 12.5,22C 13.0442,21.2828 13.7109,20.7828 14.5,20.5C 18.5,20.5 22.5,20.5 26.5,20.5C 26.5,23.5 26.5,26.5 26.5,29.5C 17.5,29.5 8.5,29.5 -0.5,29.5C -0.5,26.5 -0.5,23.5 -0.5,20.5C 4.96467,15.5364 10.298,10.3697 15.5,5C 16.7248,4.43716 17.7248,4.77049 18.5,6C 12.9637,11.3686 7.63034,16.8686 2.5,22.5 Z"/></g>
<g><path style="opacity:1" fill="#9bb4c5" d="M 2.5,22.5 C 2.23798,23.9778 2.57131,25.3112 3.5,26.5C 4.10667,26.3764 4.44001,26.0431 4.5,25.5C 4.83333,25.5 5.16667,25.5 5.5,25.5C 11.6446,26.4902 17.9779,26.8235 24.5,26.5C 17.0182,27.492 9.35156,27.8254 1.5,27.5C 1.21552,25.5853 1.54885,23.9187 2.5,22.5 Z"/></g>
<g><path style="opacity:1" fill="#9fb7c7" d="M 14.5,20.5 C 18.6344,19.5151 22.9677,19.1818 27.5,19.5C 27.5,23.1667 27.5,26.8333 27.5,30.5C 18.1667,30.5 8.83333,30.5 -0.5,30.5C -0.5,30.1667 -0.5,29.8333 -0.5,29.5C 8.5,29.5 17.5,29.5 26.5,29.5C 26.5,26.5 26.5,23.5 26.5,20.5C 22.5,20.5 18.5,20.5 14.5,20.5 Z"/></g>
</svg>
